<!-- block2-->
<svg xmlns:xsi="http://www.w3.org/2001/XMLSchema-instance"
 xsi:noNamespaceSchemaLocation="block2.xsd" width="400" height="558" class="block2" viewBox="60 0 320 560">
    <!--build block2-->
    <rect width="310" height="318" x="40" y="0" fill="url(#my4pattern)" />
    <rect width="224" height="318" x="40" y="294" fill="url(#my4pattern)" />
    <rect width="98" height="171" x="264" y="331" fill="url(#my4pattern)" />
    <rect width="262" height="270" x="64" y="24" fill="#f8cede" />
    <rect width="176" height="242" x="64" y="294" fill="#f8cede" />
    <rect width="99" height="125" x="239" y="354" fill="#f8cede" />
    <rect width="50" height="500" x="350" y="0" fill="url(#treePattern)" />
    <rect width="150" height="50" x="250" y="500" fill="url(#treePattern)" />
    <!--basin-->
    <rect width="75" height="75" x="247" y="215" rx="40" fill="#23c8ff" stroke="grey" stroke-width="5" />
    <rect width="75" height="75" x="247" y="215" rx="40" fill="url(#waterPattern)" stroke="darkgrey" stroke-width="5" />
    <!-- -->
    <rect width="90" height="110" x="241" y="360" rx="40" fill="url(#my3pattern)" stroke="black" stroke-width="2" />
    <rect width="61" height="95" x="255" y="375" rx="30" />
    <rect width="90" height="40" x="241" y="432" rx="5" fill="url(#my3pattern)" stroke="black" stroke-width="2" />
    <rect width="81" height="100" x="245" y="365" rx="40" fill="yellow" opacity=".3" />
    <rect width="40" height="45" x="265" y="420" fill="crimson" rx="30" />
    <rect width="8" height="13" x="280" y="447" fill="darkturquoise" rx="10" stroke="blue" stroke-width="4" />

    <!--flame-->
    <svg version="1.1" id="Capa_1" xmlns="http://www.w3.org/2000/svg" xmlns:xlink="http://www.w3.org/1999/xlink" x="252px" y="149px" viewBox="0 0 3000 611.999" style="enable-background:new 0 0 611.999 611.999;" xml:space="preserve">
        <g>
            <path d="M216.02,611.195c5.978,3.178,12.284-3.704,8.624-9.4c-19.866-30.919-38.678-82.947-8.706-149.952
		  c49.982-111.737,80.396-169.609,80.396-169.609s16.177,67.536,60.029,127.585c42.205,57.793,65.306,130.478,28.064,191.029
		  c-3.495,5.683,2.668,12.388,8.607,9.349c46.1-23.582,97.806-70.885,103.64-165.017c2.151-28.764-1.075-69.034-17.206-119.851
		  c-20.741-64.406-46.239-94.459-60.992-107.365c-4.413-3.861-11.276-0.439-10.914,5.413c4.299,69.494-21.845,87.129-36.726,47.386
		  c-5.943-15.874-9.409-43.33-9.409-76.766c0-55.665-16.15-112.967-51.755-159.531c-9.259-12.109-20.093-23.424-32.523-33.073
		  c-4.5-3.494-11.023,0.018-10.611,5.7c2.734,37.736,0.257,145.885-94.624,275.089c-86.029,119.851-52.693,211.896-40.864,236.826
		  C153.666,566.767,185.212,594.814,216.02,611.195z" fill="orangered" stroke="orange" stroke-width="40" />
        </g>
        <g></g>
        <g></g>
        <g></g>
        <g></g>
        <g></g>
        <g></g>
        <g></g>
        <g></g>
        <g></g>
        <g></g>
        <g></g>
        <g></g>
        <g></g>
        <g></g>
        <g></g>
    </svg>
</svg>
