<svg height="560" width="360" xmlns="http://www.w3.org/2000/svg" xmlns:xlink="http://www.w3.org/1999/xlink"><pattern id="a" height="15" patternUnits="userSpaceOnUse" width="50"><path d="m0 0h50v15h-50z" fill="#d3d3d3"/><rect fill="#808080" height="6.5" rx="1" width="23.5"/><rect fill="#717171" height="6.5" rx="1" width="23.5" x="25"/><path d="m0 7.5h12v6.5h-12z" fill="#696969"/><rect fill="#808080" height="6.5" rx="1" width="23.5" x="13" y="7.5"/><path d="m38 7.5h12v6.5h-12z" fill="#696969"/></pattern><pattern id="b" height="50" patternUnits="userSpaceOnUse" width="50"><path d="m20 40h10v10h-10z" fill="#800000"/><path d="m25 0 15 15h-10l15 10h-10l15 15h-50l15-15h-10l15-10h-10z" fill="#006400"/></pattern><path d="m50 50h310v326h-310z" fill="url(#a)"/><path d="m94 373h228v188h-228z" fill="url(#a)"/><path d="m74 74h262v275h-262z" fill="#9d2c4e"/><path d="m118 349h180v188h-180z" fill="#9d2c4e"/><g fill="url(#b)"><path d="m50 0h300v50h-300z"/><path d="m0 50h50v300h-50z"/><path d="m50 400h50v150h-50z"/></g></svg>