<svg height="700" width="405" xmlns="http://www.w3.org/2000/svg" xmlns:xlink="http://www.w3.org/1999/xlink"><pattern id="a" height="15" patternUnits="userSpaceOnUse" width="50"><path d="m0 0h50v15h-50z" fill="#d3d3d3"/><rect fill="#808080" height="6.5" rx="1" width="23.5"/><rect fill="#717171" height="6.5" rx="1" width="23.5" x="25"/><path d="m0 7.5h12v6.5h-12z" fill="#696969"/><rect fill="#808080" height="6.5" rx="1" width="23.5" x="13" y="7.5"/><path d="m38 7.5h12v6.5h-12z" fill="#696969"/></pattern><pattern id="b" height="15" patternUnits="userSpaceOnUse" width="50"><path d="m0 0h50v15h-50z" fill="#dcc0c7"/><rect fill="#9d2c4e" height="6.5" rx="1" width="23.5"/><rect fill="#9c2343" height="6.5" rx="1" width="23.5" x="25"/><path d="m0 7.5h12v6.5h-12z" fill="#a11d3e"/><rect fill="#aa3553" height="6.5" rx="1" width="23.5" x="13" y="7.5"/><path d="m38 7.5h12v6.5h-12z" fill="#a11d3e"/></pattern><pattern id="c" height="50" patternUnits="userSpaceOnUse" width="50"><path d="m20 40h10v10h-10z" fill="#800000"/><path d="m25 0 15 15h-10l15 10h-10l15 15h-50l15-15h-10l15-10h-10z" fill="#006400"/></pattern><rect fill="url(#a)" height="650" rx="30" width="315" x="45" y="50"/><rect fill="url(#b)" height="600" rx="15" width="265" x="70" y="75"/><rect height="600" opacity=".5" rx="15" width="265" x="70" y="75"/><g fill="url(#c)"><path d="m350 50h50v650h-50z"/><path d="m50 0h150v50h-150z"/><path d="m250 0h100v50h-100z"/></g></svg>