<svg width="364" height="463" xmlns="http://www.w3.org/2000/svg">
    <defs>
        <pattern id="prefix__a" patternUnits="userSpaceOnUse" x="0" y="0" width="50" height="15">
            <path fill="#dcc0c7" d="M0 0h50v15H0z" />
            <rect width="23.5" height="6.5" rx="1" fill="#9d2c4e" />
            <rect width="23.5" height="6.5" x="25" rx="1" fill="#9c2343" />
            <path fill="#a11d3e" d="M0 7.5h12V14H0z" />
            <rect width="23.5" height="6.5" x="13" y="7.5" rx="1" fill="#aa3553" />
            <path fill="#a11d3e" d="M38 7.5h12V14H38z" />
        </pattern><svg id="prefix__b" xmlns="http://www.w3.org/2000/svg" viewBox="0 0 170 180">
            <rect width="150" height="170" x="5" y="7" fill="#bebebe" rx="70" stroke="#000" />
            <rect width="90" height="135" x="35" y="37" rx="50" />
            <rect width="150" height="60" x="5" y="117" fill="#bebebe" rx="5" stroke="#000" />
            <rect width="20" height="40" x="70" y="1" fill="#a9a9a9" rx="5" stroke="#000" />
            <rect width="40" height="20" x="1" y="70" fill="#a9a9a9" rx="5" stroke="#000" />
            <rect width="40" height="20" x="120" y="70" fill="#a9a9a9" rx="5" stroke="#000" />
            <rect width="20" height="20" x="120" y="120" fill="gray" rx="5" stroke="#000" />
            <rect width="20" height="20" x="100" y="140" fill="#a9a9a9" rx="5" stroke="#000" />
            <rect width="20" height="20" x="20" y="150" fill="gray" rx="5" stroke="#000" />
            <rect width="5" height="76" x="78" y="41" fill="#708090" rx="5" />
            <rect width="5" height="72" x="55" y="45" fill="#708090" rx="5" />
            <rect width="5" height="72" x="100" y="45" fill="#708090" rx="5" />
        </svg>
    </defs>
    <path fill="url(#prefix__a)" opacity=".5" d="M0 0h262v80H0z" />
    <path fill="url(#prefix__a)" d="M0 75h262v200H0zm44 200h180v188H44z" />
    <svg width="272" height="250" xmlns="http://www.w3.org/2000/svg">
        <use xlink:href="#prefix__b" x="20" y="25" width="100" xmlns:xlink="http://www.w3.org/1999/xlink" /></svg>
</svg>