<!--cover2-->
<svg width="270" height="580" class="cover2" viewBox="0 0 307 550"
    xmlns="http://www.w3.org/2000/svg"
    xmlns:xlink="http://www.w3.org/1999/xlink">
    <!-- define pattern -->
    <defs>
        <!--pink bricks-->
        <pattern id="my5pattern" patternUnits="userSpaceOnUse" x="0" y="0" width="50" height="15">
            <rect width="323" height="580" x="0" y="0" fill="grey"/>

            <rect width="23.5" height="6.5" x="0" y="0" rx="1" fill="#ff9ece"/>

            <rect width="23.5" height="6.5" x="25" y="0" rx="1" fill="#ffacd6"/>

            <rect width="12" height="6.5" x="0" y="7.5" fill="#ffb4da"/>
            <rect width="23.5" height="6.5" x="13" y="7.5" rx="1" fill="#ffa5d2"/>

            <rect width="12" height="6.5" x="38" y="7.5" fill="#ffb4da"/>
        </pattern>
        <!-- Define Window -->

        <svg id="window" viewBox="0 0 170 180"
            xmlns="http://www.w3.org/2000/svg"
            xmlns:xlink="http://www.w3.org/1999/xlink">
            <rect width="150" height="170" x="5" y="7" fill="#bebebe" rx="70" stroke="black" />
            <rect width="90" height="135" x="35" y="37" rx="50" />
            <rect width="150" height="60" x="5" y="117" fill="#bebebe" rx="5" stroke="black" />
            <rect width="20" height="40" x="70" y="1" fill="darkgrey" rx="5" stroke="black" />
            <rect width="40" height="20" x="1" y="70" fill="darkgrey" rx="5" stroke="black" />
            <rect width="40" height="20" x="120" y="70" fill="darkgrey" rx="5" stroke="black" />
            <rect width="20" height="20" x="120" y="120" fill="grey" rx="5" stroke="black" />
            <rect width="20" height="20" x="100" y="140" fill="darkgrey" rx="5" stroke="black" />
            <rect width="20" height="20" x="20" y="150" fill="grey" rx="5" stroke="black" />
            <rect width="5" height="76" x="78" y="41" fill="slategrey" rx="5" />
            <rect width="5" height="72" x="55" y="45" fill="slategrey" rx="5" />
            <rect width="5" height="72" x="100" y="45" fill="slategrey" rx="5" />
        </svg>
    </defs>

    <rect width="273" height="44" x="0" y="0" fill="url(#my5pattern)" opacity=".5" />
    <rect width="273" height="239" x="0" y="44" fill="url(#my5pattern)" />
    <rect width="181" height="73" x="0" y="281" fill="url(#my5pattern)" />
    <rect width="283" height="130" x="0" y="342" fill="url(#my5pattern)" />
    <rect width="181" height="69" x="0" y="461" fill="url(#my5pattern)" />
    <!-- Windows -->
    <use xlink:href="#window" x="10" y="-155" width="95"/>
    <use xlink:href="#window" x="182" y="135" width="95"/>
</svg>

 