<svg height="600" width="265" xmlns="http://www.w3.org/2000/svg" xmlns:xlink="http://www.w3.org/1999/xlink"><pattern id="a" height="24.1" patternUnits="userSpaceOnUse" width="24.2"><path d="m0 0h25v25h-25z" fill="#d3d3d3"/><rect fill="#a9a9a9" height="24.2" rx="5" stroke="#d3d3d3" stroke-width="3" width="24.1"/></pattern><pattern id="b" height="15" patternUnits="userSpaceOnUse" width="50"><path d="m0 0h50v15h-50z" fill="#dcc0c7"/><rect fill="#9d2c4e" height="6.5" rx="1" width="23.5"/><rect fill="#9c2343" height="6.5" rx="1" width="23.5" x="25"/><path d="m0 7.5h12v6.5h-12z" fill="#a11d3e"/><rect fill="#aa3553" height="6.5" rx="1" width="23.5" x="13" y="7.5"/><path d="m38 7.5h12v6.5h-12z" fill="#a11d3e"/></pattern><pattern id="c" height="160" patternUnits="userSpaceOnUse" width="150" x="25" y="25"><rect height="37" opacity=".2" rx="3" width="93" x="3" y="80"/><rect fill="#bebebe" height="105" rx="43" stroke="#000" width="93" x="3" y="4"/><rect fill="url(#b)" height="83" rx="31" stroke="#000" width="56" x="22" y="23"/><rect height="83" opacity=".3" rx="31" width="56" x="22" y="23"/><rect fill="#fff" height="22" rx="1" width="13" x="43" y="52"/><rect fill="#ffd700" height="25" opacity=".8" rx="15" width="25" x="36" y="26"/><rect fill="#dc143c" height="15" opacity=".9" rx="15" width="9" x="44" y="34"/><rect fill="#bebebe" height="37" rx="3" stroke="#000" width="93" x="3" y="72"/><rect fill="#a9a9a9" height="25" rx="3" stroke="#000" width="12" x="43" y=".7"/><rect fill="#a9a9a9" height="12" rx="3" stroke="#000" width="25" x=".7" y="43"/><rect fill="#a9a9a9" height="12" rx="3" stroke="#000" width="25" x="74" y="43"/><rect fill="#808080" height="12" rx="3" stroke="#000" width="12" x="74" y="74"/><rect fill="#a9a9a9" height="12" rx="3" stroke="#000" width="12" x="62" y="86"/><rect fill="#808080" height="12" rx="3" stroke="#000" width="12" x="12" y="93"/><rect height="41" rx="5" width="2.5" x="29" y="31"/><rect height="47" rx="5" width="2.5" x="39" y="25"/><rect height="47" rx="5" width="2.5" x="48" y="25"/><rect height="47" rx="5" width="2.5" x="57" y="25"/><rect height="41" rx="5" width="2.5" x="66" y="31"/></pattern><rect fill="url(#a)" height="600" rx="10" width="265"/><path d="m25 180h150v160h-150z" fill="url(#c)"/></svg>