<svg height="580" viewBox="0 0 288 488" width="280" xmlns="http://www.w3.org/2000/svg" xmlns:xlink="http://www.w3.org/1999/xlink"><pattern id="a" height="15" patternUnits="userSpaceOnUse" width="50"><path d="m0 0h50v15h-50z" fill="#dcc0c7"/><rect fill="#9d2c4e" height="6.5" rx="1" width="23.5"/><rect fill="#9c2343" height="6.5" rx="1" width="23.5" x="25"/><path d="m0 7.5h12v6.5h-12z" fill="#a11d3e"/><rect fill="#aa3553" height="6.5" rx="1" width="23.5" x="13" y="7.5"/><path d="m38 7.5h12v6.5h-12z" fill="#a11d3e"/></pattern><pattern id="b" height="15" patternUnits="userSpaceOnUse" width="50"><path d="m0 0h323v580h-323z" fill="#f9e9f9"/><rect fill="#ce88c6" height="6.5" rx="1" width="23.5"/><rect fill="#cc8fc3" height="6.5" rx="1" width="23.5" x="25"/><path d="m0 7.5h12v6.5h-12z" fill="#cb96c1"/><rect fill="#cf8ac6" height="6.5" rx="1" width="23.5" x="13" y="7.5"/><path d="m38 7.5h12v6.5h-12z" fill="#cb96c1"/></pattern><pattern id="c" height="160" patternUnits="userSpaceOnUse" width="150" x="29" y="42"><rect height="37" opacity=".2" rx="3" width="93" x="3" y="83"/><rect fill="#bebebe" height="105" rx="43" stroke="#000" width="93" x="3" y="4"/><rect fill="url(#a)" height="83" rx="31" stroke="#000" width="56" x="22" y="23"/><rect height="83" opacity=".5" rx="31" width="56" x="22" y="23"/><rect fill="#bebebe" height="37" rx="3" stroke="#000" width="93" x="3" y="72"/><rect fill="#a9a9a9" height="25" rx="3" stroke="#000" width="12" x="43" y=".7"/><rect fill="#a9a9a9" height="12" rx="3" stroke="#000" width="25" x=".7" y="43"/><rect fill="#a9a9a9" height="12" rx="3" stroke="#000" width="25" x="74" y="43"/><rect fill="#808080" height="12" rx="3" stroke="#000" width="12" x="74" y="74"/><rect fill="#a9a9a9" height="12" rx="3" stroke="#000" width="12" x="62" y="86"/><rect fill="#808080" height="12" rx="3" stroke="#000" width="12" x="12" y="93"/><rect height="41" rx="5" width="2.5" x="29" y="31"/><rect height="47" rx="5" width="2.5" x="39" y="25"/><rect height="47" rx="5" width="2.5" x="48" y="25"/><rect height="47" rx="5" width="2.5" x="57" y="25"/><rect height="41" rx="5" width="2.5" x="66" y="31"/></pattern><g fill="url(#b)"><path d="m0 0h273v44h-273z" opacity=".5"/><path d="m0 44h273v239h-273z"/><path d="m0 281h181v73h-181z"/><path d="m0 342h283v130h-283z"/><path d="m0 461h181v69h-181z"/></g><path d="m0 5h150v190h-150z" fill="url(#c)"/><path d="m0 325h150v190h-150z" fill="url(#c)"/></svg>