<svg width="364" height="463" class="cover1"  xmlns="http://www.w3.org/2000/svg">
					<!-- define pattern -->
					<defs>
						<!--red bricks-->
						<pattern id="my4pattern" patternUnits="userSpaceOnUse" x="0" y="0" width="50" height="15">
							<rect width="50" height="15" x="0" y="0" class="back2" />

							<rect width="23.5" height="6.5" x="0" y="0" rx="1" class="redcolor1" />

							<rect width="23.5" height="6.5" x="25" y="0" rx="1" class="redcolor2" />

							<rect width="12" height="6.5" x="0" y="7.5" class="redcolor4" />
							<rect width="23.5" height="6.5" x="13" y="7.5" rx="1" class="redcolor3" />

							<rect width="12" height="6.5" x="38" y="7.5" class="redcolor4" />
						</pattern>

						<!-- Define Window -->

						<svg id="window" viewBox="0 0 170 180">
							<rect width="150" height="170" x="5" y="7" fill="#bebebe" rx="70" stroke="black" />
							<rect width="90" height="135" x="35" y="37" rx="50" />
							<rect width="150" height="60" x="5" y="117" fill="#bebebe" rx="5" stroke="black" />
							<rect width="20" height="40" x="70" y="1" fill="darkgrey" rx="5" stroke="black" />
							<rect width="40" height="20" x="1" y="70" fill="darkgrey" rx="5" stroke="black" />
							<rect width="40" height="20" x="120" y="70" fill="darkgrey" rx="5" stroke="black" />
							<rect width="20" height="20" x="120" y="120" fill="grey" rx="5" stroke="black" />
							<rect width="20" height="20" x="100" y="140" fill="darkgrey" rx="5" stroke="black" />
							<rect width="20" height="20" x="20" y="150" fill="grey" rx="5" stroke="black" />
							<rect width="5" height="76" x="78" y="41" fill="slategrey" rx="5" />
							<rect width="5" height="72" x="55" y="45" fill="slategrey" rx="5" />
							<rect width="5" height="72" x="100" y="45" fill="slategrey" rx="5" />
						</svg>
					</defs>

					<rect width="262" height="80" x="0" y="0" fill="url(#my4pattern)" opacity=".5" />

					<rect width="262" height="200" x="0" y="75" fill="url(#my4pattern)" />

					<rect width="180" height="188" x="44" y="275" fill="url(#my4pattern)" />

				</svg>