<!--block6 container-->
<svg width="410" height="1100" x="0" y="0" viewBox="0 -50 410 800"
    xmlns="http://www.w3.org/2000/svg" class="block6">
    <defs>
        <!--grey bricks-->
        <pattern id="greyBricks" patternUnits="userSpaceOnUse" x="0" y="0" width="50" height="15">
            <rect width="50" height="15" x="0" y="0" fill="lightgrey"/>
            <rect width="23.5" height="6.5" x="0" y="0" rx="1" fill="grey" />
            <rect width="23.5" height="6.5" x="25" y="0" rx="1" fill="#717171" />
            <rect width="12" height="6.5" x="0" y="7.5" fill="dimgrey"/>
            <rect width="23.5" height="6.5" x="13" y="7.5" rx="1" fill="#808080" />
            <rect width="12" height="6.5" x="38" y="7.5" fill="dimgrey"/>
        </pattern>
        <!--red bricks-->
        <pattern id="redBricks" patternUnits="userSpaceOnUse" x="0" y="0" width="50" height="15">
            <rect width="50" height="15" x="0" y="0" fill="#dcc0c7"/>

            <rect width="23.5" height="6.5" x="0" y="0" rx="1" fill="#9d2c4e"/>

            <rect width="23.5" height="6.5" x="25" y="0" rx="1" fill="#9c2343"/>

            <rect width="12" height="6.5" x="0" y="7.5" fill="#a11d3e"/>
            <rect width="23.5" height="6.5" x="13" y="7.5" rx="1" fill="#aa3553"/>

            <rect width="12" height="6.5" x="38" y="7.5" fill="#a11d3e"/>
        </pattern>
        <!-- define tree pattern -->
        <pattern id="treePattern" patternUnits="userSpaceOnUse" x="0" y="0" height="50" width="50">
            <rect width="10" height="10" x="20" y="40" fill="maroon" />
            <polygon points="25,0 40,15 30,15 45,25 35,25 50,40 0,40 15,25 5,25 20,15 10,15 " style="fill:darkgreen;"/>
        </pattern>
        <!-- define jewel pattern -->
        <pattern id="jewels" patternUnits="userSpaceOnUse" x="0" y="10" height="46" width="46" viewBox="0 0 46 46">
            <rect width="10" height="5" x="5" y="0" fill="black" />
            <rect width="15" height="5" x="20" y="0" fill="black" />
            <rect width="5" height="15" x="0" y="5" fill="black" />
            <rect width="5" height="10" x="5" y="5" fill="white" />
            <rect width="5" height="5" x="5" y="15" fill="red" />
            <rect width="5" height="5" x="5" y="20" fill="black" />
            <rect width="5" height="20" x="10" y="5" fill="red" />
            <rect width="5" height="5" x="10" y="25" fill="black" />
            <rect width="5" height="5" x="15" y="5" fill="black" />
            <rect width="5" height="20" x="10" y="5" fill="red" />
            <rect width="5" height="15" x="15" y="10" fill="red" />
            <rect width="5" height="5" x="15" y="25" fill="maroon" />
            <rect width="5" height="5" x="15" y="30" fill="black" />
            <rect width="5" height="20" x="20" y="5" fill="red" />
            <rect width="5" height="5" x="20" y="25" fill="maroon" />
            <rect width="5" height="5" x="20" y="30" fill="black" />
            <rect width="5" height="15" x="25" y="5" fill="red" />
            <rect width="5" height="5" x="25" y="20" fill="maroon" />
            <rect width="5" height="5" x="25" y="25" fill="black" />
            <rect width="5" height="15" x="30" y="5" fill="maroon" />
            <rect width="5" height="5" x="30" y="20" fill="black" />
            <rect width="5" height="15" x="35" y="5" fill="black" />
        </pattern>
        <!--plank pattern-->
        <pattern id="planks" patternUnits="userSpaceOnUse" x="0" y="0" width="100" height="500">
            <rect width="80" height="500" fill="burlywood" stroke="saddlebrown" stroke-width="2" />
            <polygon points="0,0 0,500 20,500 20,0 40,0 40,500 60,500 60,0 80,0 80,500 100,500 100,0" style="stroke:saddlebrown;stroke-width:2;fill:burlywood;" />
        </pattern>
        <!-- define tree pattern -->
        <pattern id="treePattern" patternUnits="userSpaceOnUse" x="5" y="0" height="50" width="50">
            <rect width="10" height="10" x="20" y="40" fill="maroon" />
            <polygon points="25,0 40,15 30,15 45,25 35,25 50,40 0,40 15,25 5,25 20,15 10,15 " style="fill:darkgreen;"/>
        </pattern>
        <!-- water pattern -->
        <pattern id="waterPattern" patternUnits="userSpaceOnUse" x="0" y="0" height="10" width="20">
            <circle cx="10" cy="-10" r="15" fill="transparent" stroke="aqua" stroke-width="1" />
        </pattern>
    </defs>
    <!--build block6-->
    <rect width="400" height="50" x="0" y="-50" rx="15" fill="url(#treePattern)" />
    <rect width="310" height="650" x="50" y="0" rx="30" fill="url(#greyBricks)" />
    <rect width="260" height="600" x="75" y="25" rx="15" fill="url(#redBricks)" />
    <rect width="260" height="600" x="75" y="25" rx="15" fill="black" opacity=".5" />
    <rect width="50" height="650" x="0" y="0" rx="15" fill="url(#treePattern)" />
    <rect width="50" height="645" x="350" y="0" fill="url(#treePattern)" />
    <rect width="150" height="50" x="50" y="650" fill="url(#treePattern)" />
    <rect width="50" height="250" x="150" y="650" fill="url(#treePattern)" />
    <rect width="50" height="250" x="250" y="650" fill="url(#treePattern)" />
     <rect width="50" height="50" x="300" y="650" fill="url(#treePattern)" />

</svg>