<svg width="720" height="1710" x="0" y="0" viewBox="0 0 720 1710"
    xmlns="http://www.w3.org/2000/svg" class="block6">
    <defs>
       
        <!-- water pattern -->
        <pattern id="waterPattern" patternUnits="userSpaceOnUse" x="0" y="0" height="10" width="20">
            <circle cx="10" cy="-10" r="15" fill="transparent" stroke="aqua" stroke-width="1" />
        </pattern>
        <!-- small green fish pattern -->
        <pattern id="smallGreenFish" patternUnits="userSpaceOnUse" x="0" y="-10" width="90" height="70">
            <rect width="50" height="30" x="2" y="22" rx="30" fill="green" stroke="darkgreen" stroke-width="2" />
            <polygon points="52,37 70,22 65,60" style="fill:chartreuse;stroke:darkgreen;stroke-width:2;" />
            <polygon points="25,22 45,11 55,22" style="fill:chartreuse;stroke:darkgreen;stroke-width:2;" />
            <polygon points="25,53 45,65 55,54" style="fill:chartreuse;stroke:darkgreen;stroke-width:2;" />
            <rect width="10" height="10" rx="5" stroke="red" stroke-width="3" x="12" y="30" />
            <polygon points="6,45 28,45 6,45" style="stroke:black;stroke-width:2;" />
        </pattern>
        <!-- green fish pattern -->
        <pattern id="greenFish" patternUnits="userSpaceOnUse" x="70" y="-5" width="120" height="66">
            <rect width="90" height="35" x="25" y="22" rx="50" fill="#152f13" stroke="darkgreen" stroke-width="2" />
            <rect width="25" height="30" x="78" y="24" rx="50" fill="teal" />
            <polygon points="26,38 2,22 2,60" style="fill:indigo;stroke:darkgreen;stroke-width:2;" />
            <polygon points="25,22 45,11 75,22" style="fill:purple;stroke:darkgreen;stroke-width:2;" />
            <polygon points="25,55 45,65 65,57" style="fill:fuchsia;stroke:darkgreen;stroke-width:2;" />
            <rect width="11" height="11" x="88" y="30" rx="10" stroke="magenta" stroke-width="4" />
            <polygon points="108,48 88,48 108,48" style="stroke:black;stroke-width:2;" />
        </pattern>
        <!-- red fish pattern -->
        <pattern id="redFish" patternUnits="userSpaceOnUse" x="13" y="-5" width="90" height="66">
            <rect width="50" height="30" x="2" y="22" rx="30" fill="firebrick" stroke="maroon" stroke-width="2" />
            <rect width="25" height="28" x="6" y="23" rx="30" fill="orangered" />
            <polygon points="52,37 70,22 65,60" style="fill:red;stroke:maroon;stroke-width:2;" />
            <polygon points="25,22 45,11 55,22" style="fill:red;stroke:maroon;stroke-width:2;" />
            <polygon points="25,53 45,65 55,54" style="fill:red;stroke:maroon;stroke-width:2;" />
            <rect width="10" height="10" x="10" y="30" rx="5" stroke="chartreuse" stroke-width="3" />
            <polygon points="6,45 20,45 6,45" style="stroke:black;stroke-width:2;" />
        </pattern>
        <!-- tropical fish pattern -->
        <pattern id="tropicalFish" patternUnits="userSpaceOnUse" x="0" y="0" width="91" height="70">
            <rect width="50" height="30" x="2" y="22" rx="30" fill="deeppink" stroke="darkgreen" stroke-width="2" />
            <rect width="20" height="26" x="7" y="24" rx="30" fill="gold"/>
            <polygon points="52,37 70,22 65,60" style="fill:chartreuse;stroke:darkgreen;stroke-width:2;" />
            <polygon points="25,22 45,11 55,22" style="fill:gold;stroke:darkgreen;stroke-width:2;" />
            <polygon points="25,53 45,65 55,54" style="fill:gold;stroke:darkgreen;stroke-width:2;" />
            <rect width="10" height="10" rx="5" stroke="chartreuse" stroke-width="3" x="12" y="30" />
            <polygon points="6,45 20,45 6,45" style="stroke:darkgreen;stroke-width:2;" />
        </pattern>
        
</defs>




<!--fish-->
<rect width="460" height="66" x="177" y="1390" fill="url(#redFish)" />
<rect width="530" height="66" x="100" y="1452" fill="url(#redFish)" />
<rect width="460" height="66" x="177" y="990" fill="url(#tropicalFish)" />
<rect width="529" height="66" x="90" y="1056" fill="url(#tropicalFish)" />
<rect width="465" height="66" x="170" y="1119" fill="url(#tropicalFish)" />
<rect width="480" height="66" x="70" y="1188" fill="url(#greenFish)" />
<rect width="528" height="66" x="92" y="1254" fill="url(#smallGreenFish)" />
<rect width="460" height="66" x="177" y="1516" fill="url(#redFish)" />
<rect width="280" height="66" x="268" y="1585" fill="url(#redFish)" />
<rect width="480" height="66" x="70" y="1320" fill="url(#greenFish)" />
<rect width="550" height="660" x="70" y="990" fill="url(#waterPattern)" rx="120" opacity=".5"/>







</svg>